<?xml version="1.0" standalone="no"?>
<!DOCTYPE svg PUBLIC "-//W3C//DTD SVG 20010904//EN"
 "http://www.w3.org/TR/2001/REC-SVG-20010904/DTD/svg10.dtd">
<svg version="1.0" xmlns="http://www.w3.org/2000/svg"
 width="547.000000pt" height="534.000000pt" viewBox="0 0 547.000000 534.000000"
 preserveAspectRatio="xMidYMid meet">

<g transform="translate(0.000000,534.000000) scale(0.100000,-0.100000)"
fill="#000000" stroke="none">
<path d="M2700 5320 c0 -11 4 -20 9 -20 13 0 21 -53 9 -67 -5 -7 -8 -22 -5
-35 4 -21 4 -20 6 4 0 15 6 30 12 33 6 4 8 13 5 21 -3 8 -1 14 5 14 6 0 13 -9
16 -20 4 -14 11 -19 23 -15 28 9 33 -12 10 -37 -16 -18 -23 -20 -29 -9 -6 9
-10 10 -16 2 -4 -7 -2 -17 3 -24 5 -7 11 -22 14 -33 5 -18 2 -21 -16 -17 -21
4 -21 4 2 -13 27 -20 28 -40 4 -62 -15 -14 -17 -31 -14 -104 4 -95 8 -99 87
-114 30 -5 95 -40 106 -57 4 -5 9 -5 11 -1 3 5 3 3 2 -3 -2 -7 12 -25 31 -40
19 -16 35 -35 35 -43 1 -8 9 8 19 35 11 31 14 52 8 56 -5 4 -6 13 -2 20 6 9
11 6 18 -12 16 -38 16 -49 2 -49 -7 0 -16 -7 -19 -16 -9 -22 -8 -24 12 -25 14
0 14 -2 -3 -9 l-20 -8 20 -7 c11 -4 31 -12 45 -18 14 -5 33 -9 43 -8 10 1 25
-6 32 -15 11 -16 10 -20 -16 -33 -30 -14 -30 -18 -11 -70 4 -10 1 -13 -12 -8
-11 4 -15 3 -11 -4 4 -6 13 -8 21 -5 9 3 14 -2 14 -14 0 -13 -5 -17 -14 -14
-11 4 -13 0 -9 -15 6 -23 23 -29 23 -8 0 8 4 7 10 -3 15 -24 12 -32 -11 -25
-19 6 -21 4 -17 -13 3 -11 3 -36 -1 -54 -7 -31 4 -78 19 -78 4 0 5 15 3 33 -3
23 -1 28 6 17 13 -21 10 -90 -3 -79 -6 5 -27 22 -46 39 -26 23 -36 27 -38 16
-2 -8 1 -24 7 -34 8 -16 7 -21 -5 -26 -9 -3 -20 -4 -25 0 -5 3 -9 -6 -9 -19 0
-31 -14 -42 -65 -52 -82 -16 -85 -15 -105 18 -11 18 -20 25 -20 17 0 -10 -11
-16 -34 -17 -32 -1 -34 1 -33 25 2 25 -1 27 -31 24 l-34 -2 7 64 c5 42 3 66
-4 70 -8 5 -12 -17 -13 -71 -1 -43 -3 -89 -4 -103 -1 -14 -3 -60 -3 -102 l-1
-78 -150 0 c-140 0 -151 1 -168 21 -70 83 -68 82 -117 76 -56 -8 -95 5 -95 33
0 11 19 40 43 65 l43 45 -27 33 c-24 30 -34 34 -78 36 -28 1 -63 6 -78 12 -28
10 -167 39 -190 39 -7 0 -13 -9 -13 -20 0 -11 -4 -20 -10 -20 -5 0 -10 6 -10
13 0 8 -4 7 -10 -3 -7 -11 -10 -11 -10 -2 0 10 -5 10 -20 2 -25 -13 -51 -10
-68 10 -12 13 -13 13 -8 -2 2 -9 -1 -19 -8 -21 -9 -4 -13 10 -15 46 -1 28 -5
55 -8 60 -3 5 -18 -11 -34 -36 -44 -71 -66 -81 -156 -73 -56 4 -88 13 -121 32
-61 36 -43 12 23 -30 63 -41 71 -52 54 -73 -10 -11 -26 -14 -66 -11 -50 4 -51
4 -41 -16 6 -12 47 -57 92 -100 78 -76 79 -80 7 -26 -40 30 -167 189 -185 231
-7 16 -16 26 -21 22 -4 -5 -5 0 -2 9 3 9 -5 51 -19 93 -27 83 -47 246 -31 256
5 4 6 25 2 48 -6 35 -4 45 12 56 14 11 18 25 16 73 -2 47 1 61 13 66 10 4 14
13 10 22 -3 8 -2 13 3 10 5 -3 11 5 15 17 6 27 39 45 99 52 57 8 117 26 117
37 0 4 6 8 13 8 8 0 14 7 14 15 0 8 -6 15 -14 15 -7 0 -13 -5 -13 -11 0 -5 -5
-7 -11 -3 -8 4 -7 9 2 15 10 6 11 11 3 17 -11 7 -38 70 -39 87 0 6 -10 21 -22
34 -20 21 -28 23 -78 18 -31 -3 -71 -14 -89 -25 -18 -11 -48 -24 -67 -31 -43
-14 -102 -75 -130 -132 -11 -24 -30 -62 -41 -84 -12 -24 -22 -66 -24 -108 -4
-66 -3 -73 42 -160 25 -50 52 -99 59 -109 10 -16 8 -32 -16 -101 -29 -82 -37
-133 -20 -123 5 3 12 -1 15 -10 11 -28 6 -54 -10 -61 -11 -4 -13 -13 -9 -34 4
-16 0 -39 -9 -57 -14 -27 -14 -30 2 -28 28 2 26 -42 -4 -98 -30 -56 -73 -112
-84 -109 -4 1 -7 -3 -8 -10 0 -7 -3 -23 -7 -37 -5 -21 -5 -22 5 -7 10 15 40
24 40 12 0 -3 -10 -25 -22 -48 -12 -23 -21 -47 -20 -54 5 -27 -62 -105 -127
-147 l-67 -43 -18 -88 c-9 -49 -13 -91 -9 -95 4 -4 28 -21 52 -39 47 -33 81
-74 112 -134 24 -45 35 -42 37 11 1 22 6 50 11 63 9 21 10 19 10 -16 1 -22 -4
-57 -10 -79 -9 -32 -7 -46 11 -88 19 -44 20 -53 7 -65 -18 -18 -24 -10 -61 77
-66 153 -118 215 -188 226 -24 4 -38 1 -47 -10 -7 -9 -24 -16 -37 -16 -13 0
-24 -5 -24 -11 0 -5 -5 -7 -12 -3 -6 4 -17 -1 -23 -10 -11 -14 -13 -15 -18 -2
-4 9 0 22 8 30 8 8 15 33 15 55 l0 41 -47 -6 c-65 -8 -97 -21 -122 -50 -11
-13 -21 -26 -21 -28 0 -2 22 7 50 20 74 36 80 33 77 -28 -2 -49 0 -53 22 -56
l24 -4 -8 -111 c-4 -62 -7 -122 -7 -134 0 -27 -29 -31 -52 -7 -20 19 -20 28
-1 44 11 9 15 32 15 80 0 85 -6 103 -28 89 -19 -11 -255 -59 -261 -53 -2 2 4
13 13 23 10 11 15 25 11 31 -4 6 -2 17 5 25 9 11 6 12 -17 8 -15 -3 -71 -6
-123 -7 l-95 -1 -3 -312 -2 -312 232 3 c128 2 263 4 301 5 l67 1 -26 41 c-14
22 -23 43 -20 46 12 12 33 -7 54 -51 l23 -46 58 6 c32 4 66 2 76 -3 14 -8 12
-12 -17 -22 -73 -28 -99 -42 -105 -58 -9 -23 -44 -52 -63 -53 -8 0 -33 -23
-54 -50 -22 -28 -43 -50 -48 -50 -4 0 -8 -9 -8 -20 0 -11 3 -20 8 -20 16 0 70
41 137 104 39 36 93 77 120 90 44 22 66 31 150 65 68 28 311 99 316 93 3 -4
16 -70 28 -147 12 -77 29 -165 38 -195 17 -61 65 -128 117 -159 20 -12 146
-48 302 -86 148 -35 291 -71 317 -79 26 -9 159 -40 295 -71 136 -30 288 -66
338 -78 l92 -24 198 47 c110 26 352 84 539 129 187 45 390 93 450 108 129 30
195 62 237 116 42 53 51 83 89 310 l34 197 187 0 c162 0 187 2 182 15 -4 8 -2
15 4 15 6 0 18 3 26 6 11 4 15 2 11 -8 -7 -17 32 -18 43 -2 4 5 21 15 37 22
l30 12 -27 -23 c-16 -12 -28 -26 -28 -30 0 -4 36 -7 81 -7 78 0 80 1 77 23 -2
12 -9 21 -16 19 -16 -3 -16 15 0 22 7 3 -6 3 -29 1 -24 -2 -43 -2 -43 -1 0 2
12 11 26 21 20 13 28 14 40 4 17 -14 17 -15 -2 101 -8 52 -16 135 -17 183 -2
105 0 107 108 133 l72 17 125 -32 c131 -32 173 -37 198 -21 12 7 8 12 -17 21
-18 6 -33 14 -33 17 0 12 42 92 49 92 4 0 22 -15 39 -33 31 -32 34 -51 7 -41
-7 3 -16 1 -19 -4 -3 -6 -15 -8 -26 -5 -11 3 -20 1 -20 -3 0 -14 48 -33 70
-27 30 8 24 -6 -7 -19 l-28 -12 33 -4 c63 -7 62 -15 62 372 0 504 -18 650 -84
676 -11 4 -30 17 -40 29 -11 11 -27 21 -36 21 -24 0 -34 28 -12 33 16 3 -28
19 -90 32 -14 3 -39 18 -55 35 -15 16 -34 30 -40 30 -7 0 -13 6 -13 13 0 9
-13 11 -42 9 l-43 -3 34 27 c28 23 31 28 17 36 -9 5 -26 6 -38 2 l-21 -6 21
22 c19 21 27 22 88 17 89 -9 173 -56 275 -157 l79 -78 0 210 0 210 -37 -6
c-21 -3 -69 -9 -108 -11 -38 -3 -108 -10 -154 -15 -47 -5 -85 -9 -86 -7 -9 15
-43 122 -40 125 5 5 135 4 293 -4 l132 -6 0 56 c0 49 -3 56 -19 56 -26 0 -27
4 -23 114 3 87 5 93 23 89 16 -5 19 0 19 30 l0 36 -421 1 -422 0 7 -53 c3 -28
6 -74 6 -102 1 -46 2 -48 15 -31 8 11 17 36 20 55 3 20 10 53 16 74 9 33 13
37 43 37 27 0 38 -7 58 -37 14 -21 28 -58 32 -83 3 -25 9 -55 12 -67 5 -20 3
-23 -21 -23 -18 0 -28 6 -32 20 -8 29 -68 28 -76 -1 -3 -12 -11 -19 -19 -16
-7 2 -21 0 -30 -5 -13 -6 -16 -5 -12 6 4 10 -3 17 -20 22 -34 8 -56 34 -30 35
11 0 14 3 7 6 -7 2 -13 14 -13 25 0 12 -3 18 -6 15 -4 -4 -22 13 -40 38 -39
50 -53 56 -135 58 -33 1 -55 3 -49 5 20 7 9 22 -16 22 -21 0 -24 -3 -15 -14 9
-10 8 -16 -4 -26 -16 -13 -21 -35 -6 -25 5 3 12 1 16 -5 3 -5 -2 -10 -12 -10
-16 -1 -15 -3 6 -20 12 -11 27 -17 32 -14 25 15 79 -76 79 -134 0 -30 9 -47
45 -86 25 -27 45 -44 45 -38 0 7 4 12 10 12 5 0 7 -17 4 -40 -3 -23 -2 -46 3
-53 6 -7 20 -37 32 -67 13 -35 32 -62 51 -75 40 -27 46 -49 25 -96 -22 -49
-39 -49 -61 -3 -15 32 -19 34 -25 18 -9 -24 -49 -58 -57 -49 -4 4 -7 49 -7
100 0 95 -8 124 -26 92 -9 -16 -13 -15 -39 11 -15 16 -34 29 -42 29 -7 0 -30
3 -50 7 -41 8 -48 1 -20 -21 13 -11 14 -15 3 -20 -7 -3 -20 -14 -29 -24 -25
-29 -52 -8 -52 41 0 21 -4 42 -10 45 -16 10 -12 45 5 45 8 0 15 -6 15 -13 0
-18 40 -38 66 -34 38 5 76 37 71 58 -3 10 -2 17 3 14 4 -3 18 3 30 13 20 16
21 21 9 40 -18 28 -53 38 -85 23 -14 -6 -33 -11 -43 -11 -22 0 -36 41 -18 52
9 6 9 8 0 8 -7 0 -13 6 -13 14 0 8 6 17 13 19 12 5 -43 11 -75 8 -14 -2 -18 5
-18 28 0 18 5 31 13 31 7 0 8 3 2 8 -21 16 -58 62 -49 62 5 0 24 -14 42 -31
32 -30 35 -29 35 16 0 55 -2 57 -33 53 -16 -3 -30 -1 -30 4 0 4 5 8 11 8 8 0
7 5 -1 15 -11 13 -10 14 4 9 9 -3 16 -10 16 -14 0 -4 11 -7 25 -7 14 0 25 3
25 8 0 5 5 9 11 9 6 0 8 -7 5 -16 -5 -14 -4 -15 9 -4 8 7 12 17 9 22 -4 6 0
14 7 19 10 6 8 9 -8 9 -13 0 -23 -4 -23 -9 0 -6 -12 -6 -32 0 -80 23 -114 14
-263 -71 -78 -44 -145 -80 -149 -80 -5 0 -70 -29 -145 -64 -184 -86 -401 -160
-401 -136 0 4 11 11 25 14 16 4 22 11 19 21 -4 11 -2 13 9 9 8 -3 34 4 58 17
38 19 41 23 26 34 -21 15 -22 26 -3 19 8 -3 17 -1 21 5 3 6 -2 11 -13 11 -11
0 -25 7 -32 15 -7 8 -16 12 -21 10 -4 -3 -7 3 -6 14 0 10 6 17 12 15 5 -2 16
5 23 17 12 18 11 21 -7 26 -26 7 -26 18 -1 45 24 26 26 40 5 32 -18 -7 -21 26
-5 42 7 7 -18 11 -81 13 -74 1 -95 -2 -110 -15 -11 -9 -19 -23 -19 -31 0 -17
33 -50 46 -46 5 2 11 -8 12 -22 2 -23 -6 -29 -35 -26 -21 3 -1 -41 27 -57 20
-11 27 -24 28 -47 1 -29 -2 -32 -28 -33 -29 -1 -33 5 -31 38 0 9 -2 10 -5 3
-3 -7 -12 -9 -20 -6 -8 3 -14 -1 -14 -11 0 -9 -4 -16 -10 -16 -5 0 -10 -6 -10
-13 0 -17 -37 -39 -45 -27 -10 17 -25 11 -18 -7 4 -11 3 -14 -5 -9 -7 4 -12 3
-12 -3 0 -5 8 -15 18 -20 22 -13 1 -14 -32 -1 -14 5 -26 15 -26 22 0 10 2 10
9 0 7 -11 10 -10 15 3 8 23 8 27 -4 20 -12 -8 -13 17 -1 31 18 20 21 62 5 75
-12 9 -14 24 -10 56 6 54 0 74 -22 66 -14 -5 -15 -3 -4 8 6 7 12 26 12 41 0
25 -3 28 -36 28 -24 0 -33 -4 -28 -12 5 -8 2 -9 -9 -5 -12 4 -17 1 -17 -11 0
-10 -3 -13 -8 -7 -4 6 -16 17 -26 25 -18 14 -19 13 -13 -2 3 -10 2 -20 -4 -24
-6 -3 -13 3 -16 15 -8 30 -18 26 -19 -9 -1 -18 3 -27 9 -23 6 4 8 0 4 -11 -4
-10 -7 -23 -7 -29 0 -6 -6 -2 -14 8 -8 11 -12 35 -10 53 l4 32 -65 0 c-58 0
-65 -2 -65 -20z m60 0 c0 -5 -7 -10 -15 -10 -8 0 -15 5 -15 10 0 6 7 10 15 10
8 0 15 -4 15 -10z m50 -20 c0 -5 -7 -10 -15 -10 -8 0 -15 5 -15 10 0 6 7 10
15 10 8 0 15 -4 15 -10z m450 -6 c0 -8 -5 -12 -10 -9 -6 4 -8 11 -5 16 9 14
15 11 15 -7z m1226 -10 c17 -7 34 -23 37 -35 5 -18 4 -19 -11 -7 -24 19 -61
36 -99 43 -18 4 -33 11 -33 16 0 12 61 2 106 -17z m420 -1 c3 -16 7 -32 9 -38
1 -5 10 7 20 28 16 32 23 37 52 37 40 0 41 -9 6 -50 l-26 -32 21 -51 c29 -70
29 -85 -3 -79 -14 2 -25 9 -25 16 0 6 -9 24 -20 41 -20 30 -22 29 -35 -28 -4
-22 -11 -28 -28 -25 -21 3 -22 8 -22 84 0 50 -5 87 -12 96 -16 19 -7 28 28 28
23 0 30 -5 35 -27z m238 17 c16 -6 26 -17 26 -30 0 -17 -7 -20 -40 -20 -29 0
-40 -4 -40 -15 0 -10 11 -15 35 -15 31 0 35 -3 35 -25 0 -22 -4 -25 -35 -25
-24 0 -35 -5 -35 -15 0 -11 11 -15 41 -15 33 0 40 -3 35 -16 -3 -9 -6 -20 -6
-25 0 -5 -29 -9 -64 -9 l-65 0 4 108 c3 59 5 108 5 110 0 6 82 1 104 -8z
m-2150 -15 c-4 -8 -11 -15 -16 -15 -6 0 -5 6 2 15 7 8 14 15 16 15 2 0 1 -7
-2 -15z m231 -5 c3 -5 2 -10 -4 -10 -5 0 -13 5 -16 10 -3 6 -2 10 4 10 5 0 13
-4 16 -10z m2065 -70 c0 -77 1 -80 23 -80 30 0 36 -6 30 -31 -4 -15 -14 -19
-54 -19 l-49 0 0 105 0 105 25 0 c25 0 25 -1 25 -80z m-1910 49 c0 -5 -4 -9
-8 -9 -5 0 -9 7 -9 15 0 8 4 12 9 9 4 -3 8 -9 8 -15z m2028 -14 c2 -16 1 -63
-3 -103 -6 -68 -8 -73 -28 -70 -12 2 -21 6 -19 11 1 4 2 50 2 103 0 93 1 95
23 92 16 -2 23 -11 25 -33z m-1183 -5 c9 -16 11 -30 6 -30 -11 0 -31 32 -31
49 0 19 9 12 25 -19z m-1337 -21 c-21 -14 -26 -10 -21 11 4 16 8 18 20 9 11
-10 11 -14 1 -20z m40 -22 c7 -5 12 -4 12 2 0 6 5 11 10 11 7 0 7 -7 0 -21
-10 -17 -14 -18 -28 -7 -13 11 -15 11 -10 -3 7 -18 -22 -23 -34 -6 -18 28 17
44 50 24z m-1708 -4 c-8 -3 -24 -10 -35 -15 -20 -9 -20 -9 -1 6 11 9 27 16 35
15 14 0 14 -1 1 -6z m1797 -15 c-3 -8 -6 -5 -6 6 -1 11 2 17 5 13 3 -3 4 -12
1 -19z m893 -17 c-5 -11 -19 -23 -30 -26 -11 -3 -20 -11 -20 -17 0 -5 7 -8 15
-4 10 4 15 -1 15 -15 0 -11 -7 -22 -15 -25 -23 -9 -19 -33 5 -27 18 5 19 2 12
-18 -6 -15 -19 -25 -34 -27 -22 -3 -24 0 -21 30 l3 33 -13 -34 c-7 -19 -23
-41 -35 -49 -21 -14 -22 -13 -24 24 0 22 -1 48 0 59 2 17 0 18 -8 4 -5 -9 -8
-35 -5 -58 2 -22 -1 -41 -6 -41 -5 0 -9 21 -9 48 0 34 -3 43 -10 32 -6 -8 -8
-32 -4 -52 6 -41 -11 -55 -19 -15 -4 19 -4 18 -6 -5 -2 -44 -21 -32 -21 13 0
41 25 98 45 101 5 0 15 2 21 2 6 1 22 9 36 18 43 28 53 27 50 -7 -2 -28 -1
-27 12 8 16 43 14 40 41 55 29 17 37 14 25 -7z m600 -26 c9 -10 9 -15 1 -15
-6 0 -14 -1 -18 -2 -3 -2 -7 5 -9 15 -3 21 9 22 26 2z m-3315 -5 c-3 -5 -12
-10 -18 -10 -7 0 -6 4 3 10 19 12 23 12 15 0z m1715 0 c0 -5 -2 -10 -4 -10 -3
0 -8 5 -11 10 -3 6 -1 10 4 10 6 0 11 -4 11 -10z m-1660 -15 c0 -2 -10 -9 -22
-15 -22 -11 -22 -10 -4 4 21 17 26 19 26 11z m1694 -31 c8 -21 -1 -34 -22 -34
-11 0 -17 8 -17 25 0 28 29 35 39 9z m406 -24 c0 -5 -4 -10 -10 -10 -5 0 -10
5 -10 10 0 6 5 10 10 10 6 0 10 -4 10 -10z m312 -21 c-5 -13 -7 -41 -5 -61 4
-36 -9 -52 -20 -25 -3 7 -6 5 -6 -5 -1 -10 -6 -18 -12 -18 -20 0 -4 89 22 116
26 28 33 26 21 -7z m998 11 c0 -5 -7 -10 -16 -10 -8 0 -12 5 -9 10 3 6 10 10
16 10 5 0 9 -4 9 -10z m-1040 -10 c0 -5 -9 -14 -20 -20 -12 -6 -17 -16 -13
-26 3 -9 0 -20 -8 -25 -12 -8 -12 -10 0 -18 17 -11 7 -45 -12 -38 -6 2 -13 9
-13 15 -1 7 -2 17 -3 23 0 5 -6 7 -12 4 -6 -4 -8 -13 -6 -19 7 -18 -4 -32 -30
-40 -24 -8 -27 -1 -23 56 1 20 -2 26 -12 23 -10 -4 -14 -20 -12 -50 3 -47 -1
-50 -63 -48 -7 1 -13 -3 -13 -8 0 -5 -9 -9 -20 -9 -21 0 -24 10 -14 58 5 22
14 34 35 41 16 5 29 7 29 3 0 -4 4 -2 8 3 4 6 19 16 35 22 21 10 27 10 27 0 0
-8 4 -7 10 3 5 8 13 15 17 16 12 1 66 23 83 33 20 13 30 13 30 1z m-690 -34
c9 -12 8 -15 -9 -13 -21 1 -26 8 -14 20 9 9 9 9 23 -7z m327 -16 c1 -11 -2
-20 -8 -20 -5 0 -9 2 -9 4 0 2 -3 11 -6 20 -4 10 -1 16 8 16 7 0 14 -9 15 -20z
m1338 -46 c-4 -29 -11 -44 -21 -44 -25 0 -27 28 -5 59 12 16 21 35 22 43 0 10
2 10 6 0 3 -7 2 -33 -2 -58z m407 22 c11 -16 10 -26 -3 -23 -6 1 -14 -4 -16
-11 -3 -8 1 -10 11 -6 12 4 20 -4 31 -30 26 -62 27 -61 -117 -75 -73 -7 -157
-15 -185 -18 l-53 -6 0 31 c0 24 -6 32 -27 40 l-28 10 26 1 c20 1 28 7 31 26
4 20 1 25 -14 25 -14 0 -18 5 -14 16 3 9 6 22 6 31 0 13 23 14 173 7 107 -4
175 -11 179 -18z m-1725 -98 c-2 -18 -4 -6 -4 27 0 33 2 48 4 33 2 -15 2 -42
0 -60z m-247 52 c0 -5 -7 -7 -15 -4 -8 4 -15 8 -15 10 0 2 7 4 15 4 8 0 15 -4
15 -10z m956 -46 c13 -46 21 -58 47 -69 l30 -13 -42 -4 c-23 -2 -44 -2 -45 0
-2 2 -62 5 -132 7 -71 2 -192 7 -269 11 l-140 7 105 22 c103 22 167 37 325 74
44 10 85 19 92 20 7 0 20 -24 29 -55z m-952 -15 c-8 -14 -21 -11 -21 5 0 8 6
12 14 9 7 -3 10 -9 7 -14z m1573 -26 c-16 -16 -17 -16 -17 3 0 11 3 24 7 28 4
3 11 2 17 -4 7 -7 5 -16 -7 -27z m-1713 11 c8 -22 8 -24 -8 -24 -18 0 -29 16
-21 30 9 15 22 12 29 -6z m67 -17 c-8 -8 -11 -7 -11 4 0 20 13 34 18 19 3 -7
-1 -17 -7 -23z m24 -17 c3 -5 1 -10 -4 -10 -6 0 -11 5 -11 10 0 6 2 10 4 10 3
0 8 -4 11 -10z m1150 -67 c1 -23 0 -23 -17 -5 -10 10 -21 31 -24 48 l-5 29 23
-25 c13 -13 23 -35 23 -47z m-965 11 c0 -3 -7 -1 -15 6 -8 7 -15 17 -15 22 0
5 7 3 15 -6 8 -8 15 -18 15 -22z m90 15 c0 -14 -17 -10 -23 5 -4 10 -1 13 9 9
7 -3 14 -9 14 -14z m40 -19 c0 -37 3 -41 30 -46 17 -4 30 -10 30 -15 0 -5 16
-9 35 -9 31 0 34 2 27 23 -4 12 -7 29 -6 37 1 8 2 21 3 28 1 11 39 13 209 8
114 -3 219 -5 234 -6 25 0 27 -2 18 -26 -15 -38 -13 -44 15 -44 22 0 24 -3 15
-20 -7 -13 -16 -17 -28 -13 -15 6 -15 4 -4 -9 11 -14 8 -18 -22 -29 -20 -7
-36 -17 -36 -22 0 -4 -8 -7 -17 -6 -39 3 -51 -2 -55 -26 -3 -14 -1 -25 5 -25
6 0 6 -4 0 -12 -18 -22 -22 -105 -7 -134 8 -14 14 -33 14 -40 0 -9 11 -14 30
-14 40 0 38 -18 -2 -25 -63 -11 -238 -13 -238 -3 0 5 -4 7 -9 3 -6 -3 -6 6 -1
25 5 18 5 32 -1 36 -5 3 -7 10 -4 15 4 5 1 9 -4 9 -6 0 -11 -7 -11 -15 0 -8
-4 -15 -9 -15 -5 0 -9 12 -9 28 1 49 -2 63 -11 57 -5 -3 -7 -21 -4 -40 4 -23
2 -35 -6 -35 -6 0 -11 11 -11 25 0 17 -6 25 -17 25 -18 1 -53 22 -53 33 0 3
10 3 23 0 18 -4 19 -3 7 6 -8 6 -25 11 -38 11 -20 0 -21 -3 -12 -20 6 -12 10
-38 8 -58 l-4 -37 -11 45 -11 45 -1 -41 c-1 -48 23 -79 41 -53 8 12 9 12 5 -1
-2 -9 -16 -15 -35 -15 -16 0 -33 -3 -37 -6 -16 -16 -44 4 -48 35 -3 26 -4 24
-5 -11 -2 -43 2 -47 45 -46 8 0 7 -7 -4 -23 -21 -33 -51 -31 -55 4 -2 16 -8
26 -16 24 -8 -1 -11 2 -7 8 3 6 11 8 16 5 5 -4 9 -1 9 6 0 22 -42 59 -67 59
-22 0 -23 3 -19 40 4 30 1 40 -10 40 -8 0 -14 6 -14 14 0 8 6 14 13 13 60 -2
89 4 84 18 -4 8 -2 17 3 20 6 4 10 55 10 114 0 59 3 111 7 114 15 16 23 5 23
-33z m940 20 c0 -5 -7 -7 -15 -4 -8 4 -15 8 -15 10 0 2 7 4 15 4 8 0 15 -4 15
-10z m-1253 -16 c-3 -3 -12 -4 -19 -1 -8 3 -5 6 6 6 11 1 17 -2 13 -5z m1910
-21 c3 -10 15 -25 26 -34 19 -16 19 -16 -8 -23 -27 -7 -84 -61 -85 -79 0 -5
-7 -2 -15 6 -8 9 -33 18 -55 22 -31 5 -40 11 -36 22 4 8 9 26 12 39 6 25 18
31 29 14 3 -5 13 -6 21 -3 13 5 13 8 2 15 -8 6 -5 7 12 2 14 -4 28 -11 31 -17
7 -10 56 -13 65 -4 3 3 0 15 -6 27 -9 17 -19 21 -41 18 -16 -3 -29 -1 -29 4 0
4 16 8 35 8 25 0 37 -5 42 -17z m-1643 -9 c9 -24 7 -124 -2 -124 -13 0 -43 36
-40 48 2 6 -6 18 -17 26 -17 14 -18 17 -5 26 13 9 13 11 0 20 -9 6 -10 10 -3
10 6 0 15 -5 19 -11 5 -8 10 -6 16 5 11 20 24 21 32 0z m727 -5 c6 -12 7 -25
2 -30 -10 -10 -53 0 -53 13 0 5 5 6 10 3 17 -11 32 5 19 21 -8 10 -8 14 -1 14
6 0 16 -9 23 -21z m-895 -47 c-12 -11 -17 7 -9 34 l8 29 3 -28 c2 -16 1 -31
-2 -35z m1284 50 c0 -19 -97 -43 -130 -32 -6 2 101 38 118 39 6 1 12 -3 12 -7z
m340 -2 c0 -5 -4 -10 -10 -10 -5 0 -10 5 -10 10 0 6 5 10 10 10 6 0 10 -4 10
-10z m-569 -66 c31 -63 30 -74 -6 -74 -40 0 -76 21 -70 41 3 9 -2 24 -10 33
-9 9 -12 16 -6 16 5 0 12 9 16 19 5 17 33 32 43 25 2 -2 17 -28 33 -60z m-991
11 c0 -8 -4 -15 -10 -15 -5 0 -10 7 -10 15 0 8 5 15 10 15 6 0 10 -7 10 -15z
m1240 2 c0 -18 -37 -57 -55 -57 -8 0 0 14 18 34 38 40 37 39 37 23z m-82 -4
c-24 -51 -43 -83 -48 -83 -12 0 2 52 19 72 15 18 36 25 29 11z m-314 -28 c3
-8 1 -15 -4 -15 -6 0 -10 7 -10 15 0 8 2 15 4 15 2 0 6 -7 10 -15z m471 5 c3
-5 1 -10 -4 -10 -6 0 -11 5 -11 10 0 6 2 10 4 10 3 0 8 -4 11 -10z m-425 -25
c0 -14 5 -25 10 -25 6 0 10 -5 10 -10 0 -7 -7 -7 -20 0 -11 6 -18 15 -14 21 3
5 0 16 -6 24 -10 12 -9 15 4 15 10 0 16 -9 16 -25z m-810 -24 c15 -28 12 -61
-4 -61 -20 0 -29 17 -14 23 7 3 1 6 -14 6 -20 1 -26 -3 -22 -14 10 -26 -10
-16 -23 11 -10 21 -9 25 2 21 7 -3 21 3 31 14 22 24 31 24 44 0z m-2067 -11
c16 -19 15 -20 -3 -30 -29 -15 -40 -4 -27 25 7 14 12 25 12 25 0 0 8 -9 18
-20z m3616 6 c16 -19 3 -49 -18 -40 -9 3 -25 8 -36 11 -46 11 -48 12 -35 28
16 19 74 20 89 1z m-588 -32 c10 -13 8 -16 -11 -21 l-24 -6 24 -9 c26 -9 19
-22 -19 -33 -16 -5 -21 -4 -17 4 5 7 -2 11 -16 12 -13 0 -17 3 -10 6 17 7 15
23 -3 23 -12 0 -13 4 -4 18 14 22 63 26 80 6z m-148 -12 c-19 -14 -22 -24 -17
-62 2 -25 7 -54 10 -65 5 -20 5 -20 -10 -1 -9 11 -16 28 -16 38 0 10 -4 18
-10 18 -5 0 -10 -9 -10 -19 0 -10 -7 -22 -16 -25 -11 -4 -14 -14 -11 -29 3
-12 2 -31 -3 -42 -6 -16 -9 -11 -15 23 -6 36 -4 46 12 57 11 9 13 14 5 15 -7
0 -24 -12 -38 -27 -20 -23 -23 -24 -15 -6 15 30 15 31 -18 38 -16 3 -32 13
-35 21 -4 11 0 13 22 8 15 -4 33 -11 39 -16 9 -7 29 4 69 41 30 28 61 51 67
51 7 0 2 -8 -10 -18z m477 14 c0 -2 -7 -6 -15 -10 -8 -3 -15 -1 -15 4 0 6 7
10 15 10 8 0 15 -2 15 -4z m179 -32 c11 -25 12 -25 36 -10 13 9 26 16 29 16 6
0 -48 -109 -66 -133 -16 -22 -50 -13 -46 13 2 9 -2 24 -9 32 -10 11 -8 24 9
61 12 26 25 47 28 47 4 0 12 -12 19 -26z m-504 -54 c-3 -5 -11 -10 -16 -10 -6
0 -7 5 -4 10 3 6 11 10 16 10 6 0 7 -4 4 -10z m894 -27 c-1 -34 -2 -35 -9 -13
-11 36 -11 50 0 50 6 0 10 -17 9 -37z m-961 7 c-13 -20 -28 -27 -28 -12 0 10
22 32 32 32 5 0 3 -9 -4 -20z m492 -50 c-18 -11 -22 -7 -14 14 5 13 10 14 18
6 8 -8 7 -13 -4 -20z m-1162 -30 c-1 -16 -6 -30 -10 -30 -4 0 -8 14 -8 30 0
17 5 30 10 30 6 0 9 -13 8 -30z m-240 -39 c11 -7 11 -9 -1 -14 -16 -6 -27 0
-27 15 0 10 11 10 28 -1z m247 -11 c4 -6 -7 -10 -24 -10 -17 0 -31 5 -31 10 0
6 11 10 24 10 14 0 28 -4 31 -10z m359 -37 c4 -10 4 -14 0 -10 -4 4 -13 2 -21
-4 -16 -14 -17 3 -1 19 15 15 15 15 22 -5z m11 -43 c3 -5 -1 -10 -10 -10 -9 0
-13 5 -10 10 3 6 8 10 10 10 2 0 7 -4 10 -10z m-639 -37 c12 -17 13 -17 19 0
10 25 25 21 22 -5 -1 -16 3 -22 13 -19 8 2 22 4 30 5 8 0 23 10 32 21 10 12
17 15 18 8 0 -7 -4 -13 -10 -13 -5 0 -10 -5 -10 -11 0 -9 22 -8 65 1 36 8 49
-16 15 -28 -20 -7 -20 -7 0 -20 18 -11 20 -10 20 9 0 14 5 19 15 16 8 -4 17
-2 20 3 4 6 16 9 28 9 17 -1 18 -2 5 -6 -10 -2 -18 -9 -18 -14 0 -5 -6 -8 -12
-6 -7 1 -14 -8 -16 -20 -2 -13 -10 -23 -19 -23 -13 0 -13 -2 -2 -17 13 -15 12
-15 -8 -4 -13 6 -23 17 -24 24 0 9 -2 9 -6 0 -2 -7 -9 -13 -15 -13 -6 0 -8 7
-4 15 4 11 -2 15 -22 16 -15 0 -21 3 -14 6 6 2 12 9 12 15 0 6 -7 7 -17 3 -47
-20 -129 6 -136 42 -5 27 1 29 19 6z m644 -35 c0 -15 5 -19 20 -15 26 7 25 3
-7 -39 -16 -18 -36 -34 -45 -34 -18 0 -70 20 -78 31 -12 14 -50 29 -50 19 0
-5 -8 -10 -18 -10 -19 0 -42 -18 -42 -33 0 -5 6 -4 14 2 14 12 76 4 76 -9 0
-13 -33 -21 -44 -10 -17 17 -30 11 -15 -7 13 -15 12 -15 -10 -3 -14 7 -36 16
-50 21 -24 7 -25 7 -3 8 12 1 22 6 22 12 0 7 -9 9 -23 5 -17 -4 -24 -1 -25 9
-1 8 -3 22 -4 30 -1 8 -7 15 -15 15 -7 0 -13 5 -13 10 0 16 27 12 34 -5 3 -8
12 -15 20 -15 10 0 13 -6 9 -17 -6 -15 -4 -16 9 -6 8 7 17 10 21 7 3 -3 16 2
30 11 20 13 29 14 51 4 32 -15 78 4 69 29 -4 10 -1 13 8 10 22 -7 24 -50 3
-65 -21 -16 -5 -39 20 -30 19 7 22 68 5 98 -10 19 -9 19 10 9 12 -6 21 -20 21
-32z m878 9 c6 -5 12 -25 12 -43 0 -19 5 -34 10 -34 6 0 8 18 6 45 -4 36 -2
45 10 45 9 0 14 -8 13 -17 -1 -10 1 -26 6 -35 4 -10 5 -24 2 -32 -3 -8 -1 -17
6 -19 7 -2 8 -8 4 -13 -4 -4 -30 4 -58 18 -29 16 -57 25 -67 21 -15 -6 -15 -4
-4 9 11 14 10 17 -7 23 -23 7 -28 30 -10 41 6 3 15 0 20 -7 7 -11 9 -10 9 3 0
18 21 16 48 -5z m-1078 -7 c0 -5 -7 -10 -15 -10 -8 0 -15 5 -15 10 0 6 7 10
15 10 8 0 15 -4 15 -10z m-103 -27 c-4 -3 -2 -12 4 -20 7 -8 8 -13 1 -13 -5 0
-15 7 -22 15 -7 9 -21 13 -31 10 -11 -4 -19 -2 -19 4 0 6 17 11 37 11 20 0 33
-3 30 -7z m1004 -44 c27 -12 48 -23 46 -25 -4 -4 -94 29 -103 39 -13 12 6 8
57 -14z m-2621 2 c0 -5 -13 -12 -30 -15 -16 -3 -43 -8 -59 -11 -15 -4 -38 -15
-49 -25 -27 -26 -40 -26 -18 -1 15 16 15 19 3 17 -9 -1 -25 -13 -37 -26 l-21
-25 15 31 c17 35 46 63 46 45 0 -7 5 -9 13 -4 6 4 39 11 72 14 33 3 61 7 63 7
1 1 2 -2 2 -7z m1630 -31 c-12 -8 -11 -10 7 -10 12 0 25 -4 28 -10 3 -5 28
-10 56 -10 27 0 49 -4 49 -9 0 -10 -105 -6 -133 4 -9 4 -24 2 -31 -4 -15 -13
-40 -3 -78 29 -16 14 -11 16 50 18 46 1 62 -2 52 -8z m287 -16 c44 -22 28 -34
-47 -34 -67 0 -90 11 -71 34 17 21 74 20 118 0z m411 -42 c12 -44 12 -55 1
-68 -12 -14 -15 -10 -26 32 -7 27 -13 60 -13 72 0 41 23 18 38 -36z m441 37
c26 -9 32 -16 27 -33 -3 -11 -11 -45 -17 -73 -7 -29 -17 -53 -23 -53 -6 0 -25
9 -43 19 l-31 20 15 53 c13 45 29 78 38 78 1 0 17 -5 34 -11z m-1204 -149 c47
-7 46 -14 -2 -11 -12 1 -26 -6 -31 -15 -9 -16 -74 -18 -1018 -22 l-1009 -4
-40 -23 c-22 -13 -64 -48 -94 -79 l-54 -55 72 -438 c39 -241 74 -447 76 -459
4 -20 10 -21 366 -27 199 -4 522 -8 718 -9 337 -2 344 -3 136 -8 l-220 -6 200
-4 200 -4 -135 -6 c-74 -3 -115 -8 -90 -10 25 -2 -224 -6 -552 -9 -328 -4
-599 -8 -601 -11 -9 -9 21 -171 37 -194 23 -36 -53 -15 1025 -277 134 -32 255
-59 268 -59 14 0 71 11 127 24 123 30 250 56 268 55 7 0 -3 -7 -22 -14 l-35
-14 40 6 c70 10 29 -9 -78 -38 -56 -14 -146 -38 -200 -53 l-98 -26 -192 46
c-106 25 -291 69 -412 98 -121 30 -321 78 -445 107 -236 57 -274 73 -301 126
-9 18 -59 293 -114 628 l-99 596 65 65 c76 78 109 103 158 120 29 10 243 13
1036 13 550 -1 1023 -4 1050 -9z m1804 -103 c14 -18 4 -27 -31 -27 -26 0 -37
17 -21 33 11 12 40 8 52 -6z m-4384 -47 c-9 -17 -13 -40 -10 -51 9 -26 -2 -69
-16 -69 -7 0 -9 13 -5 38 6 34 5 36 -9 18 -18 -23 -19 -18 -5 19 11 28 52 85
58 80 2 -2 -4 -17 -13 -35z m4479 -20 c22 0 76 -58 70 -74 -9 -23 -19 -20 -34
9 -7 14 -21 25 -31 25 -9 0 -19 7 -23 15 -3 8 -13 15 -21 15 -9 0 -13 5 -10
11 4 6 14 8 22 5 8 -3 20 -6 27 -6z m-90 -21 c-7 -13 -64 -7 -64 6 0 7 14 9
35 7 19 -2 32 -8 29 -13z m36 -31 c0 -19 -2 -20 -10 -8 -13 19 -13 30 0 30 6
0 10 -10 10 -22z m-3321 -49 c43 -15 51 -35 51 -129 0 -73 -3 -83 -25 -105
-13 -14 -36 -25 -50 -25 -14 0 -25 -4 -25 -8 0 -4 25 -32 55 -62 30 -30 55
-60 55 -67 0 -9 -16 -13 -49 -13 -48 0 -51 2 -114 70 -64 69 -66 70 -115 70
l-51 0 -3 -67 -3 -68 -45 0 -45 0 -3 195 c-1 107 0 200 2 207 7 17 318 18 365
2z m246 -199 l0 -205 -45 0 -45 0 -3 195 c-1 107 0 200 3 208 3 9 19 12 47 10
l43 -3 0 -205z m468 196 c67 -28 72 -43 72 -198 l0 -140 -32 -28 c-40 -36 -80
-42 -248 -38 l-130 3 -3 195 c-1 107 0 200 2 207 8 19 295 18 339 -1z m585
-28 l3 -37 -153 -3 -152 -3 -4 -42 -3 -43 131 0 131 0 -3 -37 -3 -38 -128 -3
-128 -3 3 -42 3 -42 153 -3 153 -3 -3 -37 -3 -37 -194 -3 c-111 -1 -197 2
-200 7 -3 5 -5 100 -3 210 l3 201 197 -2 197 -3 3 -37z m494 15 c17 -18 23
-37 26 -88 2 -35 1 -76 -2 -90 -10 -38 -42 -65 -77 -65 l-31 0 61 -66 c34 -37
61 -71 61 -75 0 -5 -24 -9 -53 -9 -53 0 -53 0 -116 70 -61 69 -63 70 -111 70
l-49 0 -3 -67 -3 -68 -45 0 -45 0 -3 208 -2 208 185 -3 c175 -3 186 -4 207
-25z m-2726 -50 c-13 -13 -24 13 -18 42 l6 30 9 -33 c6 -18 7 -35 3 -39z
m4045 37 c17 -10 27 -40 13 -40 -12 0 -53 38 -47 44 8 8 11 8 34 -4z m-4184
-41 c-11 -29 -12 -29 -15 -9 -3 18 10 38 25 40 1 0 -4 -14 -10 -31z m97 6 c-4
-8 -10 -12 -15 -9 -14 8 -10 24 6 24 9 0 12 -6 9 -15z m4356 5 c0 -5 -5 -10
-11 -10 -5 0 -7 5 -4 10 3 6 8 10 11 10 2 0 4 -4 4 -10z m-233 -37 c3 -7 -4
-9 -16 -6 -12 3 -18 9 -15 15 7 11 26 6 31 -9z m-4121 -92 c0 -52 5 -66 50
-137 47 -74 52 -87 72 -205 12 -69 22 -128 22 -131 0 -8 -42 2 -57 14 -7 6
-13 4 -15 -4 -3 -7 2 -18 11 -25 14 -11 14 -12 -4 -13 -11 0 -50 -11 -87 -24
l-68 -24 0 65 0 65 69 -7 c71 -7 94 2 66 25 -8 7 -15 17 -15 23 0 6 11 0 24
-12 24 -23 24 -23 35 -3 16 30 14 42 -7 42 -35 0 -63 43 -69 106 -6 54 -5 58
10 45 10 -8 17 -9 17 -3 0 6 -5 14 -11 18 -7 4 -27 40 -45 80 -33 71 -40 114
-28 162 11 41 29 6 30 -57z m4252 -36 c-6 -14 -13 -23 -15 -21 -5 5 15 46 22
46 3 0 -1 -11 -7 -25z m-574 -180 c4 -12 -7 -15 -67 -17 -300 -6 -338 -3 -310
25 3 4 88 7 189 7 152 0 183 -2 188 -15z m-2987 -137 c20 -28 56 -118 49 -125
-4 -4 -16 -2 -26 5 -11 7 -31 12 -45 12 -14 0 -34 -5 -45 -12 -31 -20 -34 -2
-10 54 26 61 38 78 55 78 7 0 17 -6 22 -12z m246 -3 c10 -10 13 -24 8 -47 -6
-31 -9 -33 -54 -36 -39 -3 -47 -6 -47 -23 0 -10 -7 -19 -15 -19 -12 0 -15 14
-15 70 l0 70 54 0 c34 0 60 -5 69 -15z m201 -1 c19 -18 20 -38 6 -65 -8 -14
-21 -19 -55 -19 -39 0 -45 -3 -45 -21 0 -14 -5 -19 -17 -17 -14 3 -18 15 -20
58 -1 30 0 61 2 68 6 18 110 16 129 -4z m197 6 c24 -14 26 -65 2 -79 -17 -9
-16 -11 1 -30 19 -21 19 -21 -1 -21 -11 0 -28 9 -38 20 -10 11 -26 20 -37 20
-11 0 -18 -7 -18 -20 0 -11 -7 -20 -15 -20 -12 0 -15 14 -15 70 l0 70 51 0
c28 0 59 -5 70 -10z m227 -7 c2 -9 -11 -13 -47 -13 -39 0 -51 -4 -51 -15 0
-11 11 -15 40 -15 29 0 40 -4 40 -15 0 -11 -11 -15 -40 -15 -56 0 -50 -18 7
-22 26 -2 48 -9 51 -15 3 -10 -15 -13 -67 -13 l-71 0 0 63 c0 35 3 67 7 71 12
12 126 2 131 -11z m196 -5 c14 -23 0 -35 -24 -20 -11 7 -31 12 -45 12 -23 0
-25 -4 -25 -40 0 -39 1 -40 34 -40 19 0 36 6 39 13 3 9 7 9 17 0 7 -6 10 -19
6 -28 -5 -13 -18 -15 -68 -13 l-63 3 -3 55 c-3 43 0 57 15 68 25 18 103 12
117 -10z m106 -48 c0 -56 -3 -70 -15 -70 -12 0 -15 14 -15 70 0 56 3 70 15 70
12 0 15 -14 15 -70z m192 5 c31 -68 31 -88 -2 -67 -24 14 -90 16 -90 2 0 -5
-9 -10 -19 -10 -19 0 -19 3 5 58 47 105 63 107 106 17z m196 48 c2 -8 -6 -13
-22 -13 -25 0 -26 -3 -26 -55 0 -48 -2 -55 -20 -55 -18 0 -20 7 -20 55 0 52
-1 55 -25 55 -25 0 -32 10 -18 24 12 12 126 2 131 -11z m100 -56 c3 -62 1 -67
-18 -67 -18 0 -20 6 -20 63 0 35 3 67 7 71 17 17 28 -6 31 -67z m200 64 c9 -5
12 -26 10 -67 l-3 -59 -65 0 -65 0 -3 59 c-4 69 3 76 68 76 25 0 51 -4 58 -9z
m163 -43 l34 -53 3 53 c5 78 26 62 30 -21 l3 -67 -28 0 c-23 0 -33 9 -55 48
l-27 47 -1 -47 c0 -41 -3 -48 -20 -48 -18 0 -20 7 -20 63 0 35 3 67 7 70 18
18 44 3 74 -45z m607 40 c-2 -9 12 -13 47 -12 28 1 36 -1 18 -3 -17 -2 -37
-11 -43 -19 -17 -20 -30 -18 -30 6 0 11 -7 20 -16 20 -8 0 -12 5 -9 10 9 14
35 12 33 -2z m-33 -76 c-3 -3 -11 0 -18 7 -9 10 -8 11 6 5 10 -3 15 -9 12 -12z
m-3895 -22 c0 -5 -4 -10 -10 -10 -5 0 -10 5 -10 10 0 6 5 10 10 10 6 0 10 -4
10 -10z m3945 0 c3 -5 2 -10 -4 -10 -5 0 -13 5 -16 10 -3 6 -2 10 4 10 5 0 13
-4 16 -10z m295 -30 c0 -5 -4 -10 -9 -10 -6 0 -13 5 -16 10 -3 6 1 10 9 10 9
0 16 -4 16 -10z m-4381 -79 c-24 -34 -40 -63 -37 -67 4 -3 22 7 41 22 45 36
84 43 41 8 -41 -35 -84 -57 -84 -44 0 6 -5 8 -12 4 -11 -7 -9 10 7 49 5 13 2
17 -15 17 -16 0 -21 5 -18 23 3 19 8 22 41 20 26 -2 37 2 37 12 0 16 33 38 38
25 2 -5 -16 -36 -39 -69z m4568 63 c-3 -3 -12 -4 -19 -1 -8 3 -5 6 6 6 11 1
17 -2 13 -5z m-3742 -34 c-3 -5 -16 -10 -28 -9 -21 0 -21 1 -2 9 28 12 37 12
30 0z m-360 -79 c3 -5 1 -12 -5 -16 -5 -3 -10 1 -10 9 0 18 6 21 15 7z m1565
-290 c0 -5 5 -22 11 -38 l11 -28 13 35 c8 23 19 36 33 38 20 3 22 -1 22 -53 0
-40 -4 -55 -12 -53 -7 3 -15 15 -18 28 l-5 23 -12 -27 c-17 -35 -31 -33 -48 7
l-14 32 -1 -33 c0 -55 -25 -33 -28 26 -3 50 -2 52 22 52 15 0 26 -4 26 -9z
m285 -46 l0 -50 -50 0 -50 0 -3 39 c-5 60 1 68 55 64 l48 -3 0 -50z m155 20
c12 -19 23 -35 25 -35 2 0 3 14 2 32 -1 17 3 33 11 35 9 3 12 -11 12 -51 0
-48 -3 -56 -18 -56 -11 0 -27 15 -38 36 l-19 35 -5 -32 c-9 -58 -30 -47 -30
15 0 49 3 56 19 56 11 0 28 -15 41 -35z m240 26 c0 -5 -9 -11 -20 -14 -16 -4
-20 -14 -20 -47 0 -56 -24 -48 -28 9 -2 32 -7 41 -18 37 -8 -3 -14 1 -14 9 0
11 13 15 50 15 28 0 50 -4 50 -9z m110 -11 c0 -15 7 -20 29 -20 21 0 28 5 27
16 0 9 5 19 12 21 9 3 12 -11 12 -51 0 -56 -16 -77 -27 -36 -8 28 -53 28 -53
-1 0 -12 -5 -19 -12 -17 -14 5 -23 70 -14 94 8 21 26 17 26 -6z m80 -294 c0
-2 -7 -6 -15 -10 -8 -3 -15 -1 -15 4 0 6 7 10 15 10 8 0 15 -2 15 -4z"/>
<path d="M3786 5084 c-9 -23 -7 -64 3 -64 9 0 21 34 21 63 0 21 -16 22 -24 1z"/>
<path d="M3545 4990 c-3 -5 -1 -10 4 -10 6 0 11 5 11 10 0 6 -2 10 -4 10 -3 0
-8 -4 -11 -10z"/>
<path d="M3497 4983 c-4 -3 -7 -20 -6 -37 l1 -31 9 34 c10 33 8 47 -4 34z"/>
<path d="M3431 4934 c0 -11 3 -14 6 -6 3 7 2 16 -1 19 -3 4 -6 -2 -5 -13z"/>
<path d="M4773 4943 c9 -2 23 -2 30 0 6 3 -1 5 -18 5 -16 0 -22 -2 -12 -5z"/>
<path d="M4720 4850 c0 -5 5 -10 10 -10 6 0 10 5 10 10 0 6 -4 10 -10 10 -5 0
-10 -4 -10 -10z"/>
<path d="M4751 4834 c0 -11 3 -14 6 -6 3 7 2 16 -1 19 -3 4 -6 -2 -5 -13z"/>
<path d="M3850 4839 c0 -5 5 -7 10 -4 6 3 10 8 10 11 0 2 -4 4 -10 4 -5 0 -10
-5 -10 -11z"/>
<path d="M3775 4693 c-8 -17 -7 -64 1 -72 2 -2 15 4 29 13 24 16 36 66 16 66
-5 0 -16 3 -24 6 -8 3 -18 -3 -22 -13z"/>
<path d="M3300 4689 c0 -5 5 -7 10 -4 6 3 10 8 10 11 0 2 -4 4 -10 4 -5 0 -10
-5 -10 -11z"/>
<path d="M3327 4665 c3 -9 11 -14 17 -12 6 3 18 -2 28 -10 11 -10 18 -11 23
-4 3 6 0 11 -8 11 -8 0 -20 7 -27 15 -17 20 -41 20 -33 0z"/>
<path d="M3440 4639 c0 -5 11 -9 25 -9 14 0 25 2 25 4 0 2 -11 6 -25 8 -14 3
-25 1 -25 -3z"/>
<path d="M3583 4617 c-19 -23 -23 -47 -9 -47 9 0 12 7 9 19 -3 13 1 20 14 23
11 2 14 6 7 11 -7 4 -16 1 -21 -6z"/>
<path d="M3402 4608 c-7 -7 -12 -16 -12 -21 0 -6 -7 -15 -16 -21 -14 -10 -13
-15 9 -37 l24 -26 26 19 27 20 20 -24 c16 -19 19 -20 20 -5 0 13 7 17 30 15
28 -2 30 -5 25 -29 -4 -17 -1 -32 10 -43 22 -22 26 -20 19 8 -3 14 -1 27 6 31
9 6 9 10 -1 16 -11 7 -10 9 4 9 9 0 18 -6 19 -12 0 -7 2 -17 3 -23 2 -5 3 -14
4 -20 1 -5 6 -2 11 7 14 23 -4 68 -27 66 -10 0 -43 0 -73 2 -40 2 -46 4 -22 7
34 5 39 12 20 31 -9 9 -8 12 4 12 9 0 20 5 24 11 4 7 -2 10 -17 8 -13 -2 -30
0 -36 4 -9 6 -11 3 -7 -8 6 -15 4 -15 -31 -1 -45 19 -48 19 -63 4z m8 -58 c0
-5 -5 -10 -11 -10 -5 0 -7 5 -4 10 3 6 8 10 11 10 2 0 4 -4 4 -10z"/>
<path d="M3326 4601 c-3 -5 1 -12 10 -15 20 -8 29 -1 19 13 -8 13 -22 14 -29
2z"/>
<path d="M3620 4578 c0 -11 12 -10 30 2 12 7 10 9 -8 7 -12 0 -22 -5 -22 -9z"/>
<path d="M3322 4538 c5 -15 28 -18 29 -3 0 6 -7 12 -17 13 -10 3 -15 -1 -12
-10z"/>
<path d="M3295 4510 c-3 -5 -1 -10 4 -10 6 0 11 5 11 10 0 6 -2 10 -4 10 -3 0
-8 -4 -11 -10z"/>
<path d="M3586 4413 c-6 -14 -5 -15 5 -6 7 7 10 15 7 18 -3 3 -9 -2 -12 -12z"/>
<path d="M3571 4354 c0 -11 3 -14 6 -6 3 7 2 16 -1 19 -3 4 -6 -2 -5 -13z"/>
<path d="M3620 4359 c0 -5 5 -7 10 -4 6 3 10 8 10 11 0 2 -4 4 -10 4 -5 0 -10
-5 -10 -11z"/>
<path d="M4085 4690 c3 -5 8 -10 11 -10 2 0 4 5 4 10 0 6 -5 10 -11 10 -5 0
-7 -4 -4 -10z"/>
<path d="M1740 3500 l0 -61 108 3 107 3 3 49 c2 32 -1 52 -10 57 -7 5 -57 9
-110 9 l-98 0 0 -60z"/>
<path d="M2480 3429 l0 -131 94 4 c58 2 100 9 110 17 13 11 16 34 16 112 0
124 -5 129 -132 129 l-88 0 0 -131z"/>
<path d="M3510 3500 l0 -60 98 0 c111 0 122 6 122 62 0 50 -18 58 -129 58
l-91 0 0 -60z"/>
<path d="M4523 3213 c9 -2 25 -2 35 0 9 3 1 5 -18 5 -19 0 -27 -2 -17 -5z"/>
<path d="M1692 3035 c-10 -22 -9 -25 8 -25 21 0 26 16 12 38 -6 9 -12 6 -20
-13z"/>
<path d="M1880 3050 c0 -16 7 -20 35 -20 28 0 35 4 35 20 0 16 -7 20 -35 20
-28 0 -35 -4 -35 -20z"/>
<path d="M2080 3050 c0 -16 7 -20 35 -20 28 0 35 4 35 20 0 16 -7 20 -35 20
-28 0 -35 -4 -35 -20z"/>
<path d="M2285 3060 c-11 -17 5 -30 36 -30 22 0 29 5 29 20 0 15 -7 20 -29 20
-17 0 -33 -4 -36 -10z"/>
<path d="M3032 3040 c-7 -19 -6 -26 5 -28 22 -5 27 5 16 30 l-11 23 -10 -25z"/>
<path d="M3497 3064 c-4 -4 -7 -22 -7 -41 0 -32 1 -33 41 -33 l40 0 -3 38 c-3
33 -6 37 -33 40 -17 2 -34 0 -38 -4z"/>
<path d="M2530 2498 c0 -23 4 -28 25 -28 21 0 25 5 25 30 0 26 -3 29 -25 28
-20 -2 -25 -8 -25 -30z"/>
<path d="M4500 5327 c0 -18 34 -49 43 -40 4 3 7 17 7 30 0 18 -5 23 -25 23
-14 0 -25 -6 -25 -13z"/>
<path d="M4737 5230 c-4 -15 0 -20 14 -20 21 0 22 1 13 24 -8 22 -21 20 -27
-4z"/>
<path d="M3135 5220 c-3 -5 -1 -10 6 -10 6 0 18 -8 26 -17 14 -17 14 -17 9 -1
-3 10 -1 17 3 15 5 -1 10 2 10 7 2 14 -46 19 -54 6z"/>
<path d="M1550 5151 c0 -10 7 -24 15 -31 12 -10 15 -9 16 6 0 11 3 14 6 7 7
-20 23 -15 16 5 -13 34 -53 45 -53 13z"/>
<path d="M2705 5159 c-10 -15 3 -25 16 -12 7 7 7 13 1 17 -6 3 -14 1 -17 -5z"/>
<path d="M3134 5143 c2 -12 -1 -24 -8 -26 -6 -3 -4 -8 6 -12 11 -4 24 -1 33 8
20 21 19 27 -4 27 -11 0 -22 6 -25 13 -4 6 -4 2 -2 -10z"/>
<path d="M2701 4993 c-1 -83 3 -133 9 -133 12 0 12 154 1 220 -7 34 -9 13 -10
-87z"/>
<path d="M3100 5080 c0 -5 5 -10 11 -10 5 0 7 5 4 10 -3 6 -8 10 -11 10 -2 0
-4 -4 -4 -10z"/>
<path d="M5100 4925 c0 -8 7 -15 15 -15 8 0 15 7 15 15 0 8 -7 15 -15 15 -8 0
-15 -7 -15 -15z"/>
<path d="M5350 4919 c-11 -19 -13 -20 -30 -4 -10 9 -21 12 -24 7 -8 -13 19
-34 40 -30 9 2 20 13 25 26 10 28 3 29 -11 1z"/>
<path d="M5167 4911 c3 -13 11 -17 24 -14 10 3 19 9 19 14 0 4 15 10 33 12 20
2 11 4 -25 5 -50 2 -56 0 -51 -17z"/>
<path d="M1593 4862 c-27 -13 -33 -21 -33 -48 0 -35 22 -64 48 -64 19 0 72 45
72 60 0 5 -15 13 -32 18 l-33 9 28 8 c31 8 32 29 1 31 -10 1 -34 -5 -51 -14z"/>
<path d="M1380 4831 c-47 -6 -111 -43 -98 -57 4 -3 19 1 32 10 26 17 56 21 56
9 0 -5 -20 -17 -44 -27 -44 -20 -52 -34 -18 -35 9 0 41 -3 70 -7 76 -10 102 6
102 62 0 41 -13 57 -43 52 -7 0 -32 -4 -57 -7z"/>
<path d="M2834 4788 c-7 -11 -10 -9 46 -37 25 -13 55 -32 68 -44 12 -11 22
-17 22 -12 0 15 -86 92 -109 98 -12 3 -24 1 -27 -5z"/>
<path d="M1614 4691 c14 -15 15 -24 7 -39 -8 -16 -7 -21 4 -26 21 -8 19 -33
-2 -40 -13 -4 -18 -18 -20 -48 l-1 -43 20 25 c14 16 22 21 25 13 9 -25 21 -13
32 31 18 75 15 91 -27 120 -45 31 -62 34 -38 7z"/>
<path d="M2915 4701 c4 -7 3 -16 -2 -20 -6 -3 -8 -20 -6 -37 5 -29 20 -41 106
-82 4 -2 4 4 0 14 -4 12 -3 15 5 10 6 -4 4 7 -6 23 -9 17 -22 31 -29 31 -6 0
-15 5 -19 12 -5 7 -2 9 7 4 8 -4 5 -1 -6 8 -11 8 -29 23 -39 33 -11 10 -16 12
-11 4z"/>
<path d="M4539 4698 c-8 -17 -5 -58 3 -58 6 0 9 3 5 6 -3 3 -2 17 3 30 6 15 6
24 0 24 -6 0 -11 -1 -11 -2z"/>
<path d="M1465 4682 c-17 -12 -105 -131 -105 -143 0 -17 31 -71 37 -65 3 3 0
12 -7 21 -10 12 -10 15 3 15 9 0 19 -4 22 -10 7 -12 88 -50 94 -44 6 6 -43 50
-65 58 -17 7 -17 8 -3 16 9 6 38 12 65 15 91 11 84 26 -8 20 -50 -4 -88 -3
-88 2 0 14 43 48 64 51 10 2 25 1 34 -3 14 -5 14 -7 2 -15 -11 -7 -5 -10 21
-10 31 0 36 3 35 23 -1 19 -6 22 -46 22 -43 0 -45 1 -43 28 2 30 2 30 -12 19z"/>
<path d="M5115 4670 c-3 -5 -2 -10 4 -10 5 0 13 5 16 10 3 6 2 10 -4 10 -5 0
-13 -4 -16 -10z"/>
<path d="M2700 4610 c0 -5 5 -10 10 -10 6 0 10 5 10 10 0 6 -4 10 -10 10 -5 0
-10 -4 -10 -10z"/>
<path d="M3050 4579 c1 -13 12 -44 25 -69 l24 -45 -3 42 c-2 23 -13 53 -25 68
l-21 28 0 -24z"/>
<path d="M1525 4460 c3 -5 22 -10 41 -10 19 0 34 5 34 10 0 6 -18 10 -41 10
-24 0 -38 -4 -34 -10z"/>
<path d="M3057 4447 c-3 -8 -3 -33 0 -55 4 -29 12 -43 28 -50 26 -12 35 -7 35
21 0 13 -5 17 -15 13 -11 -4 -15 1 -15 17 -1 12 -7 33 -14 46 -10 18 -14 20
-19 8z"/>
<path d="M3100 4445 c0 -8 4 -15 10 -15 5 0 7 7 4 15 -4 8 -8 15 -10 15 -2 0
-4 -7 -4 -15z"/>
<path d="M2750 4350 c0 -5 5 -10 11 -10 5 0 7 5 4 10 -3 6 -8 10 -11 10 -2 0
-4 -4 -4 -10z"/>
<path d="M2871 4333 c0 -5 4 -17 9 -28 8 -18 9 -17 9 8 1 15 -3 27 -9 27 -5 0
-10 -3 -9 -7z"/>
<path d="M2250 4291 c0 -5 7 -15 17 -22 15 -13 15 -12 4 9 -12 23 -21 28 -21
13z"/>
<path d="M2940 4280 c0 -5 5 -10 11 -10 5 0 7 5 4 10 -3 6 -8 10 -11 10 -2 0
-4 -4 -4 -10z"/>
<path d="M2202 4178 c-24 -38 -21 -48 18 -48 22 0 29 6 34 26 7 25 -7 54 -24
54 -5 0 -17 -14 -28 -32z"/>
<path d="M500 4183 c-8 -10 -35 -42 -59 -71 l-44 -52 -26 24 c-23 22 -40 26
-144 35 -65 6 -131 8 -146 5 -16 -4 -32 -1 -35 5 -4 6 -16 11 -27 11 -17 0
-19 -7 -19 -74 l0 -75 70 -7 c46 -4 70 -11 70 -19 0 -7 -6 -15 -13 -18 -19 -7
-15 -42 7 -66 14 -16 22 -18 36 -9 9 6 25 8 35 5 29 -12 10 -32 -33 -35 -39
-3 -42 -6 -52 -41 -13 -48 -33 -67 -49 -47 -7 8 -9 25 -5 40 5 20 2 26 -9 26
-27 0 -30 21 -8 51 14 19 20 37 16 50 -5 15 -2 22 14 26 37 9 23 20 -29 22
l-51 1 3 -107 3 -108 52 -24 c29 -14 53 -29 53 -33 0 -5 -20 -35 -43 -66 -62
-81 -67 -93 -67 -166 l0 -66 48 0 c61 0 102 20 125 60 14 24 16 34 7 45 -11
13 5 40 85 140 13 17 37 47 52 67 89 117 162 209 200 255 36 42 44 60 45 92 0
39 -30 141 -42 141 -3 0 -12 -8 -20 -17z m-149 -111 c12 -5 14 -13 8 -30 -11
-28 -35 -38 -54 -22 -13 10 -12 15 3 36 19 25 19 26 43 16z m-37 -94 c-18 -32
-48 -58 -55 -47 -9 15 1 50 12 43 5 -3 17 0 26 5 24 14 26 13 17 -1z"/>
<path d="M382 3758 c3 -7 -1 -19 -9 -26 -7 -7 -13 -19 -13 -25 0 -13 49 42 50
56 0 4 -7 7 -16 7 -9 0 -14 -6 -12 -12z"/>
<path d="M308 3436 c-26 -20 -38 -46 -20 -46 4 0 20 12 36 26 36 32 21 51 -16
20z"/>
<path d="M5080 3229 c0 -6 6 -9 13 -6 6 2 20 -2 30 -11 21 -19 23 -9 1 12 -18
18 -44 21 -44 5z"/>
<path d="M5070 3194 c0 -27 20 -54 40 -54 26 0 25 3 -10 38 -20 20 -30 25 -30
16z"/>
<path d="M5100 3190 c0 -5 5 -10 10 -10 6 0 10 5 10 10 0 6 -4 10 -10 10 -5 0
-10 -4 -10 -10z"/>
<path d="M5135 3180 c-3 -5 -1 -10 4 -10 6 0 11 5 11 10 0 6 -2 10 -4 10 -3 0
-8 -4 -11 -10z"/>
<path d="M4904 3123 c2 -13 0 -23 -5 -23 -5 0 -8 -10 -8 -22 1 -17 3 -18 6 -6
3 10 10 15 20 11 12 -5 13 -2 6 13 -6 10 -13 26 -17 34 -3 8 -4 5 -2 -7z"/>
<path d="M4920 3050 c0 -11 4 -20 9 -20 5 0 7 9 4 20 -3 11 -7 20 -9 20 -2 0
-4 -9 -4 -20z"/>
<path d="M4920 3001 c0 -6 5 -13 10 -16 6 -3 10 1 10 9 0 9 -4 16 -10 16 -5 0
-10 -4 -10 -9z"/>
<path d="M5413 2953 c2 -10 8 -26 12 -35 7 -17 -2 -18 -106 -19 -63 0 -170 -1
-239 -1 l-125 -1 -3 27 c-2 15 -9 26 -15 23 -16 -5 -22 -47 -7 -47 7 0 10 -8
7 -20 -3 -11 -1 -20 4 -20 4 0 6 -7 3 -15 -4 -8 -1 -15 6 -15 8 0 4 -7 -7 -18
-17 -14 -18 -19 -7 -30 8 -7 14 -18 14 -25 0 -7 -4 -6 -10 3 -8 13 -11 12 -25
-5 -8 -11 -13 -30 -11 -43 3 -18 1 -20 -10 -11 -8 6 -14 19 -14 29 0 25 -8 29
-35 16 -30 -13 -33 -30 -5 -21 11 4 20 2 20 -4 0 -6 -16 -11 -35 -11 -34 0
-47 13 -22 23 9 4 8 8 -3 16 -8 6 -18 11 -21 11 -13 0 -19 -33 -9 -45 6 -8 6
-17 -3 -28 -11 -15 -15 -15 -39 -3 -31 16 -35 11 -13 -18 13 -17 19 -18 53 -8
54 16 79 15 140 -6 71 -25 116 -71 137 -139 5 -18 3 -22 -9 -17 -18 7 -22 -16
-6 -32 5 -5 7 -20 3 -32 -4 -18 -11 -22 -27 -18 -11 3 -27 6 -33 6 -7 0 -13 8
-13 19 0 29 -55 36 -80 11 -32 -32 -140 -20 -140 15 0 10 -11 11 -51 6 -4 -1
-9 -10 -12 -21 -3 -14 -14 -20 -31 -20 -16 0 -26 -6 -26 -15 0 -8 7 -15 15
-15 11 0 14 -7 11 -22 -17 -83 -16 -86 24 -137 21 -27 44 -52 50 -56 12 -8 42
-76 36 -82 -3 -3 -12 9 -21 26 -8 17 -18 31 -21 31 -3 0 5 -19 18 -42 22 -40
26 -42 70 -43 26 -1 46 1 45 5 -6 17 39 89 68 109 42 28 105 96 105 113 0 6
-13 -1 -29 -16 -18 -17 -42 -29 -63 -31 -21 -1 -34 -8 -36 -18 -4 -22 -34 -30
-66 -17 -17 6 -34 7 -44 1 -32 -18 -50 4 -46 56 l4 48 -17 -32 c-9 -18 -20
-33 -24 -33 -4 0 -21 11 -36 25 -17 15 -21 23 -10 19 14 -5 17 0 18 32 1 22 1
42 0 47 0 4 5 7 13 7 9 0 12 -8 8 -25 -5 -30 13 -33 30 -5 10 15 23 20 53 19
33 0 36 -2 18 -9 -20 -8 -24 -19 -36 -95 -2 -11 12 -15 30 -8 6 2 26 -3 43
-12 18 -9 33 -15 34 -13 2 2 0 33 -3 70 l-6 67 50 -6 c27 -3 52 -7 54 -9 4 -3
-61 -8 -80 -6 -3 1 -6 -5 -6 -13 0 -7 6 -11 12 -9 7 3 16 -10 22 -28 7 -27 14
-33 34 -30 46 5 51 10 47 52 -2 22 0 40 5 40 4 0 19 12 32 26 23 25 25 26 25
6 0 -11 6 -22 13 -25 6 -2 9 -8 4 -12 -4 -5 -13 -3 -19 3 -19 19 -26 14 -25
-15 0 -16 2 -22 4 -15 8 22 21 13 15 -10 -5 -21 -4 -22 11 -9 12 9 17 10 17 2
0 -21 -21 -52 -31 -46 -12 8 -11 -6 1 -25 8 -12 12 -12 18 -2 5 7 13 12 18 11
5 -1 18 -1 29 0 16 1 17 3 6 10 -8 5 -20 7 -28 4 -17 -7 -16 7 1 30 8 10 12
27 9 37 -6 24 3 26 24 5 16 -17 33 -12 33 11 0 8 5 14 10 14 6 0 10 7 10 15 0
18 -17 20 -23 3 -2 -8 -8 -9 -13 -4 -5 5 -4 11 4 13 18 7 15 23 -5 23 -13 0
-14 3 -5 12 17 17 15 31 -3 24 -9 -3 -25 4 -37 16 -17 17 -19 23 -7 26 8 3 25
13 38 23 18 15 20 19 7 19 -23 0 -20 17 4 25 11 3 20 11 20 16 0 5 7 9 15 9 7
0 18 7 23 16 6 11 11 13 16 5 4 -6 3 -11 -2 -11 -5 0 -12 -9 -15 -20 -4 -14
-10 -18 -22 -14 -14 6 -16 3 -11 -12 7 -23 -8 -49 -23 -40 -6 4 -11 3 -11 -3
0 -5 -3 -18 -7 -28 -5 -15 -2 -15 19 5 32 29 37 28 50 -9 7 -20 15 -28 25 -25
17 7 53 -14 53 -31 0 -23 18 -14 37 17 21 37 33 38 33 4 0 -20 4 -25 16 -20 8
3 12 2 9 -4 -3 -5 -19 -7 -35 -3 -21 4 -30 2 -30 -7 0 -8 3 -11 6 -7 4 3 22
-9 40 -29 23 -23 34 -29 34 -18 0 20 24 13 28 -9 2 -10 -3 -17 -12 -17 -8 0
-18 -5 -21 -11 -9 -13 29 -50 47 -47 7 2 12 -4 10 -12 -3 -12 -1 -13 9 -2 19
18 31 15 24 -8 -4 -11 -2 -20 4 -20 7 0 11 46 11 135 0 130 -1 135 -21 135
-11 0 -18 4 -14 10 3 5 13 6 21 3 13 -5 15 5 12 73 -3 67 -6 79 -21 82 -16 3
-17 1 -8 -16 15 -27 14 -29 -9 -35 -15 -4 -20 0 -20 14 0 10 4 19 8 19 5 0 8
10 8 23 -1 12 4 21 12 20 6 -2 12 2 12 8 0 5 5 7 10 4 6 -3 10 1 10 11 0 13
-3 14 -13 5 -8 -6 -17 -8 -20 -4 -4 3 -7 1 -7 -5 0 -9 -5 -9 -20 0 -11 7 -20
17 -20 22 0 4 7 2 17 -5 13 -11 17 -11 20 -1 3 6 10 9 16 5 8 -4 7 -1 -1 9
-10 13 -9 16 8 21 12 3 20 13 20 27 0 17 -4 21 -20 17 -11 -3 -18 -1 -14 4 3
5 12 9 20 9 11 0 14 16 14 73 l0 73 -31 2 c-26 2 -31 -1 -26 -15z m27 -3 c0
-5 -2 -10 -4 -10 -3 0 -8 5 -11 10 -3 6 -1 10 4 10 6 0 11 -4 11 -10z m-313
-76 c-3 -3 -12 -4 -19 -1 -8 3 -5 6 6 6 11 1 17 -2 13 -5z m73 -79 c0 -9 -6
-12 -15 -9 -8 4 -15 10 -15 15 0 5 7 9 15 9 8 0 15 -7 15 -15z m-221 -51 c-13
-12 -15 -10 -17 17 -2 29 -1 30 14 14 15 -14 15 -18 3 -31z m55 1 c9 -25 7
-28 -17 -31 -20 -2 -23 1 -19 22 5 27 27 32 36 9z m194 2 c19 -12 14 -22 -11
-23 -15 -1 -23 4 -24 16 -2 18 12 21 35 7z m-293 -37 c3 -5 1 -10 -4 -10 -6 0
-11 5 -11 10 0 6 2 10 4 10 3 0 8 -4 11 -10z m365 -10 c0 -5 -4 -10 -10 -10
-5 0 -10 5 -10 10 0 6 5 10 10 10 6 0 10 -4 10 -10z m-360 -31 c0 -5 -4 -9
-10 -9 -5 0 -10 7 -10 16 0 8 5 12 10 9 6 -3 10 -10 10 -16z m116 -6 c-10 -10
-19 5 -10 18 6 11 8 11 12 0 2 -7 1 -15 -2 -18z m75 -20 c12 -15 12 -16 -2
-11 -13 5 -16 2 -12 -15 5 -21 5 -21 -12 -5 -15 14 -16 20 -5 32 15 20 15 20
31 -1z m-131 -3 c0 -5 -4 -10 -10 -10 -5 0 -10 5 -10 10 0 6 5 10 10 10 6 0
10 -4 10 -10z m254 -16 c4 -9 4 -19 1 -22 -7 -8 -35 19 -29 29 8 14 21 11 28
-7z m111 -34 c3 -5 2 -10 -4 -10 -5 0 -13 5 -16 10 -3 6 -2 10 4 10 5 0 13 -4
16 -10z m-129 -77 c-7 -7 -26 7 -26 19 0 6 6 6 15 -2 9 -7 13 -15 11 -17z m44
-24 c0 -20 -4 -29 -12 -27 -16 6 -23 48 -8 48 6 0 8 5 4 12 -4 7 -3 8 4 4 7
-4 12 -21 12 -37z m38 12 c3 -8 -1 -12 -9 -9 -7 2 -15 10 -17 17 -3 8 1 12 9
9 7 -2 15 -10 17 -17z"/>
<path d="M4890 2866 c0 -8 7 -16 15 -20 17 -6 18 -4 9 18 -8 20 -24 21 -24 2z"/>
<path d="M4815 2620 c-3 -6 1 -13 10 -16 19 -8 30 0 20 15 -8 14 -22 14 -30 1z"/>
<path d="M4706 2575 c-3 -8 -1 -15 3 -15 5 0 11 7 15 15 3 8 1 15 -3 15 -5 0
-11 -7 -15 -15z"/>
<path d="M4922 2577 c-10 -11 -9 -17 3 -27 20 -17 27 -8 17 19 -7 19 -10 21
-20 8z"/>
<path d="M908 2507 c-30 -32 -41 -80 -14 -58 15 12 50 81 44 85 -1 1 -15 -11
-30 -27z"/>
<path d="M4611 2494 c0 -11 3 -14 6 -6 3 7 2 16 -1 19 -3 4 -6 -2 -5 -13z"/>
<path d="M991 2435 c-33 -58 -37 -70 -21 -60 6 3 10 1 10 -5 0 -6 5 -8 10 -5
6 3 10 11 10 16 0 6 -5 7 -11 3 -7 -4 -10 -1 -7 7 3 8 11 14 19 14 8 0 13 8
13 18 -1 9 3 17 9 17 6 0 7 3 4 7 -4 3 0 15 10 25 14 16 14 18 1 18 -9 0 -30
-25 -47 -55z"/>
<path d="M5153 2453 c4 -21 14 -43 23 -50 9 -7 14 -19 11 -28 -4 -8 -3 -15 2
-15 5 0 12 12 16 27 3 15 12 31 18 35 12 8 -12 12 -41 9 -7 -1 -12 4 -11 11 3
28 -2 48 -12 48 -8 0 -10 -13 -6 -37z"/>
<path d="M402 2448 c-5 -5 -20 -15 -32 -22 -22 -11 -81 -102 -62 -95 11 4 107
93 116 108 9 14 -9 22 -22 9z"/>
<path d="M1142 2412 c-7 -22 -12 -49 -12 -60 0 -51 -33 -66 -94 -43 -47 18
-121 13 -235 -17 -91 -25 -117 -28 -132 -19 -26 16 -24 24 9 35 15 6 20 11 10
11 -18 1 -78 -45 -78 -61 0 -20 59 -68 83 -68 20 0 28 -7 37 -35 6 -19 16 -35
21 -35 5 0 9 -11 9 -25 0 -30 16 -33 23 -4 3 12 10 18 16 14 6 -3 8 -12 5 -18
-5 -8 -3 -9 4 -2 8 7 8 23 2 50 -5 22 -10 56 -10 76 0 44 11 49 125 49 115 0
125 -4 125 -50 0 -24 -7 -43 -20 -55 -10 -9 -18 -22 -17 -29 1 -6 -33 -29 -76
-50 -42 -22 -76 -41 -74 -43 8 -7 99 37 167 82 97 63 112 81 108 130 l-2 40
41 -1 c47 -1 53 8 53 87 0 49 -10 64 -51 74 -23 6 -27 2 -37 -33z m78 -26 c0
-5 -7 -1 -15 10 -8 10 -14 24 -14 29 0 6 6 1 14 -9 8 -11 15 -24 15 -30z m-60
-61 c0 -14 -4 -25 -9 -25 -4 0 -6 11 -3 25 2 14 6 25 8 25 2 0 4 -11 4 -25z"/>
<path d="M1082 2408 c-14 -14 -16 -42 -3 -34 7 5 23 46 17 46 -1 0 -7 -5 -14
-12z"/>
<path d="M1036 2354 c-5 -14 -4 -15 9 -4 17 14 19 20 6 20 -5 0 -12 -7 -15
-16z"/>
<path d="M5295 2360 c-3 -5 -2 -10 4 -10 5 0 13 5 16 10 3 6 2 10 -4 10 -5 0
-13 -4 -16 -10z"/>
<path d="M935 2351 c-6 -11 33 -26 43 -16 4 3 0 10 -8 15 -19 12 -27 12 -35 1z"/>
<path d="M5263 2336 c0 -15 6 -26 16 -28 12 -3 8 -8 -14 -21 -16 -9 -23 -16
-15 -16 42 -1 60 46 30 74 -16 15 -17 14 -17 -9z"/>
<path d="M5146 2314 c-18 -18 -20 -30 -6 -39 16 -10 12 -25 -7 -25 -12 0 -14
-3 -6 -11 7 -7 21 -4 47 11 40 24 47 35 16 27 -19 -5 -25 6 -21 41 2 16 -4 15
-23 -4z"/>
<path d="M5330 2255 c0 -8 -7 -15 -15 -15 -8 0 -15 -5 -15 -11 0 -6 7 -9 14
-6 10 4 13 1 9 -9 -3 -7 0 -14 6 -14 6 0 11 16 11 35 0 19 -2 35 -5 35 -3 0
-5 -7 -5 -15z"/>
<path d="M4632 2220 c0 -14 2 -19 5 -12 2 6 2 18 0 25 -3 6 -5 1 -5 -13z"/>
<path d="M4995 2209 c-4 -6 -5 -12 -2 -15 2 -3 7 2 10 11 7 17 1 20 -8 4z"/>
<path d="M5199 2209 c-22 -13 -5 -19 30 -9 18 5 39 6 47 3 8 -3 14 0 14 5 0
13 -72 13 -91 1z"/>
<path d="M970 2200 c8 -5 20 -10 25 -10 6 0 3 5 -5 10 -8 5 -19 10 -25 10 -5
0 -3 -5 5 -10z"/>
<path d="M5376 2192 c-3 -6 -1 -14 5 -17 15 -10 25 3 12 16 -7 7 -13 7 -17 1z"/>
<path d="M4650 2183 c0 -6 8 -17 18 -24 16 -13 16 -13 2 6 -8 11 -16 22 -17
24 -2 2 -3 0 -3 -6z"/>
<path d="M850 2170 c0 -5 5 -10 10 -10 6 0 10 5 10 10 0 6 -4 10 -10 10 -5 0
-10 -4 -10 -10z"/>
<path d="M4940 2134 c-47 -48 -122 -104 -139 -104 -6 0 -36 26 -68 58 -32 31
-49 46 -38 32 45 -58 90 -100 107 -100 27 0 67 27 120 83 26 27 51 46 56 43 4
-2 9 4 9 15 1 10 1 19 -1 19 -1 0 -22 -21 -46 -46z"/>
<path d="M5020 2155 c0 -8 4 -15 10 -15 5 0 7 7 4 15 -4 8 -8 15 -10 15 -2 0
-4 -7 -4 -15z"/>
<path d="M1267 2100 c-26 -33 -47 -62 -47 -65 0 -8 51 53 79 93 37 53 18 36
-32 -28z"/>
<path d="M4302 2135 c0 -16 2 -22 5 -12 2 9 2 23 0 30 -3 6 -5 -1 -5 -18z"/>
<path d="M4876 2120 c-14 -22 -22 -40 -16 -40 5 0 19 18 30 40 11 22 19 40 17
40 -3 0 -16 -18 -31 -40z"/>
<path d="M4536 2118 c-22 -51 -20 -60 5 -21 11 18 19 38 16 45 -3 7 -12 -4
-21 -24z"/>
<path d="M5430 2125 c0 -8 8 -15 18 -15 14 0 15 -2 2 -10 -13 -8 -12 -10 3
-10 20 0 23 20 5 38 -16 16 -28 15 -28 -3z"/>
<path d="M4283 2043 c-13 -17 -23 -43 -23 -57 0 -14 -3 -26 -8 -26 -4 0 -13
-9 -20 -20 -11 -18 -10 -20 18 -20 19 0 30 5 30 14 0 8 7 22 16 30 10 11 14
30 12 63 l-3 48 -22 -32z"/>
<path d="M793 2023 c9 -2 23 -2 30 0 6 3 -1 5 -18 5 -16 0 -22 -2 -12 -5z"/>
<path d="M4782 1952 c-19 -3 -21 -6 -11 -18 9 -11 7 -14 -14 -14 -14 0 -29 -5
-32 -11 -12 -18 4 -23 29 -9 14 7 36 10 50 6 15 -4 26 -2 26 3 0 6 7 8 16 4
15 -5 15 -3 -1 20 -17 27 -33 39 -19 15 6 -10 4 -10 -7 -3 -8 6 -24 9 -37 7z"/>
<path d="M1123 1925 c-3 -9 -3 -18 -1 -21 3 -3 8 4 11 16 6 23 -1 27 -10 5z"/>
<path d="M4510 1897 c0 -5 7 -6 16 -3 9 4 24 1 33 -6 14 -11 14 -11 3 4 -14
17 -52 21 -52 5z"/>
<path d="M343 793 c-22 -4 -23 -9 -23 -84 l0 -79 43 0 c24 0 48 5 55 12 16 16
16 123 0 136 -18 13 -49 20 -75 15z m47 -83 c0 -38 -4 -50 -15 -50 -11 0 -15
12 -15 50 0 38 4 50 15 50 11 0 15 -12 15 -50z"/>
<path d="M670 715 c0 -69 3 -85 15 -85 12 0 15 16 15 85 0 69 -3 85 -15 85
-12 0 -15 -16 -15 -85z"/>
<path d="M940 780 c-22 -22 -27 -81 -11 -123 11 -28 43 -39 77 -27 20 8 24 17
24 50 0 36 -2 40 -25 40 -16 0 -25 -6 -25 -15 0 -8 5 -15 10 -15 6 0 10 -7 10
-15 0 -8 -9 -15 -20 -15 -17 0 -20 7 -20 50 0 43 3 50 20 50 11 0 20 -4 20
-10 0 -5 7 -10 15 -10 26 0 17 40 -11 50 -35 14 -41 13 -64 -10z"/>
<path d="M1133 792 c-24 -15 -22 -162 2 -162 11 0 15 12 15 45 0 25 5 45 10
45 6 0 10 7 10 15 0 8 -5 15 -12 15 -9 0 -9 3 0 12 26 26 6 50 -25 30z"/>
<path d="M1431 789 c-19 -7 -22 -15 -19 -40 3 -16 1 -32 -4 -35 -4 -3 -8 -21
-8 -39 0 -42 21 -56 76 -48 38 5 39 6 41 49 2 33 -2 44 -12 44 -8 0 -15 -8
-15 -17 0 -13 -3 -14 -12 -5 -9 9 -9 15 0 24 21 21 8 80 -17 77 -4 0 -17 -5
-30 -10z m29 -34 c0 -8 -4 -15 -10 -15 -5 0 -10 7 -10 15 0 8 5 15 10 15 6 0
10 -7 10 -15z m-2 -101 c-10 -10 -28 6 -28 24 0 15 1 15 17 -1 9 -9 14 -19 11
-23z"/>
<path d="M1590 780 c-20 -20 -28 -88 -14 -125 9 -24 49 -36 79 -25 21 8 25 16
25 50 0 36 -2 40 -25 40 -25 0 -36 -25 -13 -32 15 -5 1 -28 -18 -28 -10 0 -14
13 -14 50 0 37 4 50 14 50 8 0 18 -4 21 -10 11 -18 35 -11 35 10 0 13 -10 24
-26 30 -35 14 -41 13 -64 -10z"/>
<path d="M1050 775 c0 -8 9 -15 20 -15 11 0 20 7 20 15 0 8 -9 15 -20 15 -11
0 -20 -7 -20 -15z"/>
<path d="M1700 775 c0 -8 9 -15 20 -15 11 0 20 7 20 15 0 8 -9 15 -20 15 -11
0 -20 -7 -20 -15z"/>
<path d="M1195 748 c4 -122 3 -118 30 -118 25 0 33 14 15 25 -13 8 -13 62 0
67 16 5 -12 58 -30 58 -11 0 -15 -9 -15 -32z"/>
<path d="M462 738 c-7 -7 -12 -31 -12 -55 0 -37 4 -45 26 -53 17 -7 32 -7 45
0 30 17 23 33 -11 25 -23 -5 -30 -3 -30 9 0 11 9 16 30 16 25 0 30 4 30 23 0
29 -18 47 -45 47 -12 0 -26 -5 -33 -12z m48 -28 c0 -5 -7 -10 -15 -10 -8 0
-15 5 -15 10 0 6 7 10 15 10 8 0 15 -4 15 -10z"/>
<path d="M572 738 c-19 -19 -14 -27 13 -22 14 2 25 0 25 -6 0 -5 -9 -10 -20
-10 -26 0 -40 -29 -29 -59 6 -15 14 -21 25 -17 9 3 27 6 40 6 21 0 24 4 24 41
0 22 -5 49 -10 60 -12 21 -50 25 -68 7z m38 -73 c0 -8 -4 -15 -10 -15 -5 0
-10 7 -10 15 0 8 5 15 10 15 6 0 10 -7 10 -15z"/>
<path d="M735 734 c-9 -9 -14 -23 -11 -31 3 -8 6 -17 6 -19 0 -2 6 -4 14 -4 7
0 20 -7 27 -16 12 -15 10 -16 -19 -10 -39 9 -44 -10 -6 -24 55 -21 90 41 37
65 -31 13 -29 27 2 19 27 -7 33 4 13 24 -17 17 -44 15 -63 -4z"/>
<path d="M1057 743 c-4 -3 -7 -30 -7 -60 0 -46 3 -53 20 -53 18 0 20 7 20 60
0 43 -4 60 -13 60 -8 0 -17 -3 -20 -7z"/>
<path d="M1270 735 c-12 -14 -5 -55 9 -55 4 0 16 -7 27 -15 18 -15 17 -16 -13
-10 -38 8 -45 -8 -12 -26 16 -8 28 -8 46 0 30 14 28 51 -5 67 -34 17 -40 28
-11 21 31 -8 43 1 28 20 -15 17 -53 17 -69 -2z"/>
<path d="M1700 691 c0 -55 2 -61 20 -61 19 0 21 5 18 57 -2 46 -7 59 -20 61
-16 3 -18 -5 -18 -57z"/>
<path d="M1757 718 c15 -75 19 -83 43 -83 21 0 26 7 37 55 13 59 12 65 -12 57
-9 -4 -15 -19 -15 -39 0 -36 -16 -28 -22 12 -2 14 -11 26 -20 28 -15 3 -17 -2
-11 -30z"/>
<path d="M1872 738 c-7 -7 -12 -31 -12 -55 0 -37 4 -45 26 -53 17 -7 32 -7 45
0 31 17 23 32 -12 25 -24 -5 -30 -4 -27 6 3 8 17 15 31 17 47 6 31 72 -18 72
-12 0 -26 -5 -33 -12z m48 -28 c0 -5 -7 -10 -15 -10 -8 0 -15 5 -15 10 0 6 7
10 15 10 8 0 15 -4 15 -10z"/>
<path d="M1988 739 c-28 -16 -21 -28 12 -23 17 3 30 1 30 -4 0 -5 -13 -12 -30
-15 -25 -6 -30 -11 -30 -36 0 -33 12 -40 58 -34 31 5 32 7 32 52 0 65 -27 87
-72 60z m42 -68 c0 -12 -20 -25 -27 -18 -7 7 6 27 18 27 5 0 9 -4 9 -9z"/>
<path d="M2084 698 c9 -62 12 -68 37 -68 12 0 19 7 19 19 0 11 5 23 10 26 6 4
10 -5 10 -20 0 -22 4 -26 22 -23 18 2 25 13 35 58 6 30 10 56 8 58 -10 11 -35
-10 -35 -28 0 -12 -4 -18 -10 -15 -5 3 -10 15 -10 26 0 28 -34 21 -38 -9 -5
-30 -22 -28 -22 3 0 16 -6 25 -16 25 -14 0 -16 -8 -10 -52z"/>
<path d="M2258 739 c-28 -16 -21 -29 12 -22 17 3 30 1 30 -4 0 -6 -13 -13 -30
-16 -25 -6 -30 -11 -30 -36 0 -33 12 -40 58 -34 31 5 32 7 32 52 0 65 -27 87
-72 60z m42 -68 c0 -12 -20 -25 -27 -18 -7 7 6 27 18 27 5 0 9 -4 9 -9z"/>
<path d="M2354 718 c3 -18 9 -57 12 -86 8 -65 23 -63 45 5 29 88 32 113 16
113 -9 0 -18 -14 -23 -32 l-7 -33 -14 33 c-7 17 -18 32 -24 32 -7 0 -9 -12 -5
-32z"/>
<path d="M2460 729 c-13 -23 -1 -44 31 -54 31 -10 22 -25 -11 -18 -35 7 -41
-11 -9 -28 31 -16 71 4 67 34 -2 12 -13 26 -25 32 -31 13 -29 27 2 19 27 -7
33 4 13 24 -19 19 -56 14 -68 -9z"/>
<path d="M830 646 c0 -8 4 -17 10 -21 5 -3 6 -13 3 -23 -6 -15 -5 -15 10 -3
25 20 22 61 -3 61 -11 0 -20 -6 -20 -14z"/>
<path d="M330 365 l0 -55 35 0 c19 0 35 5 35 10 0 6 -11 10 -25 10 -23 0 -25
4 -25 45 0 25 -4 45 -10 45 -5 0 -10 -25 -10 -55z"/>
<path d="M810 365 c0 -30 5 -55 10 -55 6 0 10 16 10 36 0 41 15 37 25 -6 4
-17 10 -30 15 -30 5 0 11 13 15 30 10 43 25 47 25 6 0 -20 5 -36 10 -36 6 0
10 25 10 55 0 43 -3 55 -16 55 -8 0 -20 -13 -25 -30 -6 -16 -14 -30 -18 -30
-4 0 -12 14 -18 30 -6 17 -18 30 -27 30 -13 0 -16 -11 -16 -55z"/>
<path d="M420 371 c-15 -29 3 -61 35 -61 14 0 25 4 25 9 0 5 -7 8 -16 7 -9 0
-19 5 -21 12 -3 7 5 12 22 12 20 0 26 4 23 18 -5 26 -54 28 -68 3z m55 -1 c4
-6 -5 -10 -20 -10 -15 0 -24 4 -20 10 3 6 12 10 20 10 8 0 17 -4 20 -10z"/>
<path d="M515 381 c-4 -7 2 -10 16 -8 12 1 24 -3 26 -9 2 -6 -7 -10 -19 -10
-17 1 -23 -5 -23 -19 0 -16 7 -20 33 -22 32 -1 33 0 30 35 -3 32 -7 37 -30 40
-14 2 -29 -2 -33 -7z m40 -40 c7 -12 -12 -24 -25 -16 -11 7 -4 25 10 25 5 0
11 -4 15 -9z"/>
<path d="M600 349 c0 -22 5 -39 10 -39 6 0 10 12 10 26 0 15 8 32 17 39 15 11
14 13 -10 13 -25 0 -27 -4 -27 -39z"/>
<path d="M665 373 c2 -10 4 -29 6 -43 1 -20 3 -18 8 10 8 46 35 48 39 3 2 -18
8 -33 13 -33 6 0 9 17 7 38 -3 35 -5 37 -40 40 -31 3 -36 0 -33 -15z"/>
<path d="M962 374 c-14 -25 -3 -53 24 -60 42 -11 72 34 42 64 -17 17 -55 15
-66 -4z m56 -17 c4 -21 -25 -34 -40 -19 -8 8 -8 16 2 27 16 19 34 15 38 -8z"/>
<path d="M1061 348 c1 -28 3 -34 6 -18 3 14 12 33 20 43 15 16 14 17 -5 17
-19 0 -22 -5 -21 -42z"/>
<path d="M1122 378 c-15 -15 -15 -41 0 -56 15 -15 58 -16 58 -1 0 5 -4 8 -9 5
-13 -8 -42 4 -35 15 3 5 17 9 31 9 19 0 24 4 19 16 -3 9 -6 18 -6 20 0 9 -47
3 -58 -8z m43 -8 c3 -5 -3 -10 -15 -10 -12 0 -18 5 -15 10 3 6 10 10 15 10 5
0 12 -4 15 -10z"/>
<path d="M538 263 c122 -2 322 -2 445 0 122 1 22 2 -223 2 -245 0 -345 -1
-222 -2z"/>
</g>
</svg>
